Coordinates
version=1
nRows=17
nColumns=36
inDegrees=yes

Units are S.I. units (second, meters, Newtons, ...)
If the header above contains a line with 'inDegrees', this indicates whether rotational values are in degrees (yes) or radians (no).

endheader
time	pelvis_tilt	pelvis_list	pelvis_rotation	pelvis_tx	pelvis_ty	pelvis_tz	hip_flexion_r	hip_adduction_r	hip_rotation_r	knee_angle_r	knee_angle_r_beta	ankle_angle_r	subtalar_angle_r	mtp_angle_r	hip_flexion_l	hip_adduction_l	hip_rotation_l	knee_angle_l	knee_angle_l_beta	ankle_angle_l	subtalar_angle_l	mtp_angle_l	lumbar_extension	lumbar_bending	lumbar_rotation	arm_flex_r	arm_add_r	arm_rot_r	elbow_flex_r	pro_sup_r	arm_flex_l	arm_add_l	arm_rot_l	elbow_flex_l	pro_sup_l
      0.00000000	      0.37415435	     -0.25396831	      1.28665817	     -0.07257599	      1.26339907	     -0.05535476	     -1.58250572	      0.19224887	     -2.51608124	      9.70064272	      0.16930816	      8.82200677	    -10.31654231	     -6.60615021	      4.93577573	     -1.50440513	     -1.00649722	     12.95428330	      0.22609490	     15.27620954	    -11.01464514	     -6.60615021	     -5.46644298	      1.26631607	     -2.05393019	      2.83972611	     -9.53352534	      0.76905003	     20.37308159	     92.80822661	      0.19314487	    -10.27797410	     -1.48583853	     18.28935113	     91.26152535
      0.01666670	      0.11999521	     -0.23755762	     -0.28080530	     -0.07065404	      1.26023143	     -0.05474085	     -1.66013372	      0.26950166	     -3.87808769	      8.30466344	      0.14494372	      9.64167985	    -11.03956783	     -6.85163803	      4.15846380	     -1.43180911	     -4.14624995	     11.23109194	      0.19601953	     15.99671643	    -10.75108623	     -6.85163803	     -5.14046557	      1.37301435	     -1.29972535	      3.31611930	    -10.13141622	      3.78573601	     19.32968473	     96.49746645	     -1.44030320	     -9.64731904	     -5.81475770	     19.25072137	     93.95193884
      0.03333330	     -0.25078573	     -0.01762174	     -1.11610570	     -0.05904939	      1.26065540	     -0.04998877	     -1.90591281	      0.24371845	     -4.87455582	      7.56308048	      0.13200066	      9.84824639	    -11.36719260	     -6.85689948	      3.51462940	     -1.34454171	     -5.19947420	     10.16225354	      0.17736478	     15.60016162	    -11.09633803	     -6.85689948	     -3.99764411	      1.13129954	     -1.00273577	      2.64582332	    -10.02864241	      4.00286573	     19.20107652	     96.65629408	     -2.41521641	     -9.72268514	     -5.92223976	     18.90834043	     94.01208546
      0.05000000	     -1.30303361	      0.23422915	     -1.90789268	     -0.05848134	      1.26168356	     -0.04915896	     -0.91041589	      0.07598410	     -5.80096194	      7.37273575	      0.12867851	     10.52014417	    -11.28456828	     -7.00974689	      4.10931707	     -1.12075254	     -6.12077483	      9.35511815	      0.16327761	     15.49868031	    -10.74926330	     -7.00974689	     -1.78176727	      0.85513317	     -1.18245700	      2.73691823	    -10.29452906	      8.45188686	     18.09726311	     98.36850985	     -3.38609813	     -9.62886376	     -6.86318034	     18.19263231	     93.99989422
      0.06666670	     -2.38599665	      0.43317141	     -2.20185270	     -0.06794350	      1.25969441	     -0.05275137	      0.66955223	     -0.06917252	     -6.80893507	      7.85621796	      0.13711687	     11.54830146	    -11.17043048	     -7.02646789	      5.39345271	     -1.00733274	     -6.56781606	      9.68369898	      0.16901243	     15.96202141	    -10.25026222	     -7.02646789	     -0.32792598	      0.69676473	     -1.18961066	      2.59543493	    -10.18949450	      8.75144831	     17.96444349	     99.01638556	     -3.87564849	     -9.61223786	     -7.40296788	     18.59564996	     94.48765379
      0.08333330	     -3.20857259	      0.63566686	     -2.38478644	     -0.06780668	      1.25856086	     -0.05231081	      2.01471800	     -0.28235193	     -7.73558513	      8.46763090	      0.14778804	     12.01896027	    -11.41099065	     -7.09227814	      6.44012341	     -0.89542571	     -6.94405021	     10.13501662	      0.17688941	     16.10790955	    -10.14585545	     -7.09227814	      0.76970445	      0.46979758	     -1.61901801	      2.95197018	    -10.08222633	      9.48585748	     17.46604897	    103.74270716	     -4.53274140	     -9.27968193	    -11.00568029	     19.17671590	     99.30382455
      0.10000000	     -3.83458113	      0.87727085	     -2.62369525	     -0.06730572	      1.25779781	     -0.05229572	      3.02717638	     -0.52150884	     -8.11712579	      8.99133732	      0.15692844	     12.00230555	    -12.10427855	     -7.14260876	      7.27493828	     -0.72969981	     -7.05489185	     10.52999789	      0.18378313	     16.23612261	    -10.32977213	     -7.14260876	      1.67616454	      0.24172506	     -1.46161855	      2.87175024	     -9.95229769	      9.69468066	     17.26532167	    102.54017874	     -4.66983574	     -9.27087685	    -10.79612012	     19.05499283	     97.79508609
      0.11666670	     -4.55217429	      1.10199676	     -2.83557162	     -0.06733817	      1.25663416	     -0.05177508	      4.20980532	     -0.77741252	     -8.48707969	      9.62747533	      0.16803114	     12.33479293	    -12.24326328	     -7.18700182	      8.18621629	     -0.61596842	     -7.31077823	     10.90182566	      0.19027275	     16.56162083	     -9.99370139	     -7.18700182	      2.65085423	      0.04797491	     -1.40963608	      2.87898862	     -9.86465479	     10.45404616	     16.93822587	    101.74279345	     -4.81792410	     -9.32829977	    -10.46513819	     18.79288472	     97.09448554
      0.13333330	     -5.36662703	      1.27217033	     -2.96398999	     -0.06669498	      1.25224524	     -0.05180434	      5.40519635	     -0.94366054	     -8.53640841	     10.16913878	      0.17748495	     12.52915196	    -12.47124303	     -7.26848372	      9.27173815	     -0.53585650	     -7.39529577	     11.30681804	      0.19734120	     16.68278594	     -9.86401582	     -7.26848372	      3.82592169	     -0.00211477	     -1.48687527	      2.95308471	     -9.93923282	     11.78207878	     16.74653769	    104.83565408	     -5.25868685	     -9.34359252	    -11.35970942	     19.08394700	    101.59630820
      0.15000000	     -5.84255530	      1.40400687	     -3.05119129	     -0.06672005	      1.25488048	     -0.05124736	      6.11552998	     -1.06597610	     -8.54049271	     10.58243035	      0.18469825	     12.58939272	    -12.67381897	     -7.29932344	      9.90886442	     -0.46715664	     -7.45476170	     11.59831595	      0.20242880	     16.78740682	     -9.77449998	     -7.29932344	      4.51912066	     -0.13157247	     -1.40947587	      3.13181285	     -9.80972173	     12.10644882	     16.26168518	    105.10824193	     -5.35605873	     -9.38371957	    -11.40067235	     18.91179968	    101.95959952
      0.16666670	     -5.72313896	      1.52074537	     -2.90050926	     -0.06613283	      1.25847133	     -0.05165421	      5.87135905	     -1.17760255	     -8.48060884	     10.50475775	      0.18334261	     12.51086885	    -12.74912179	     -7.31311218	      9.61929920	     -0.28810927	     -7.57222468	     11.34910066	      0.19807917	     16.37147885	     -9.76353093	     -7.31311218	      4.50969740	     -0.29793409	     -1.46068666	      3.05688292	     -9.76297006	     12.30231352	     16.34083179	    105.81362667	     -5.42069684	     -9.40012616	    -11.30269232	     19.01823595	    102.81229235
      0.18333330	     -5.80582084	      1.59479926	     -2.95627899	     -0.06604445	      1.25480954	     -0.05110083	      6.06156237	     -1.21230143	     -8.42611268	     10.55068924	      0.18414427	     12.46833964	    -12.94721101	     -7.32873873	      9.65786144	     -0.21929370	     -7.81581346	     11.31191703	      0.19743020	     16.32663509	     -9.55326940	     -7.32873873	      4.58031535	     -0.36453249	     -1.53808385	      3.05052295	     -9.74120813	     12.53125122	     16.45178036	    105.92541908	     -5.63871043	     -9.40622685	    -11.56060715	     19.26077857	    103.01568446
      0.20000000	     -5.93014365	      1.64798303	     -2.89071485	     -0.06517268	      1.25474959	     -0.05131558	      6.23197862	     -1.22829909	     -8.24930824	     10.58828329	      0.18480041	     12.17723303	    -13.53991670	     -7.35115359	      9.73647917	     -0.12100342	     -7.77096497	     11.23553975	      0.19609716	     15.98560402	     -9.85117753	     -7.35115359	      4.78480620	     -0.43441785	     -1.45566336	      3.06846831	     -9.62486514	     12.43681437	     16.14995438	    105.59340992	     -5.82326652	     -9.37046704	    -11.61204430	     19.33111944	    102.04417445
      0.21666670	     -5.61502630	      1.63025228	     -2.76242047	     -0.06512103	      1.25515478	     -0.05107676	      5.70924117	     -1.18290609	     -8.36964088	     10.26766083	      0.17920449	     12.02746278	    -13.56839883	     -7.37363047	      9.24595056	     -0.06928057	     -7.77596416	     11.02403810	      0.19240576	     15.95335738	     -9.66670244	     -7.37363047	      4.36109422	     -0.47372130	     -1.55632795	      2.98040142	     -9.67048152	     12.32034229	     16.61213854	    107.40208124	     -6.04903374	     -9.36889917	    -12.18136927	     19.88946843	    104.34132705
      0.23333330	     -5.76237937	      1.67870590	     -2.68292482	     -0.06450658	      1.25846820	     -0.05133052	      5.91299665	     -1.21625381	     -8.41580034	     10.21020058	      0.17820162	     11.89835138	    -13.64209888	     -7.41842052	      9.35647673	      0.01156627	     -7.80232567	     10.83839203	      0.18916563	     15.82260568	     -9.46075210	     -7.41842052	      4.36426936	     -0.54976860	     -1.60704733	      2.91787988	     -9.66783980	     12.61997980	     16.59520280	    107.57157380	     -6.21882040	     -9.29699340	    -12.70227148	     20.21686272	    105.19028698
      0.25000000	     -5.52827881	      1.72204155	     -2.55776747	     -0.06494634	      1.25525192	     -0.05100959	      5.49778642	     -1.23036514	     -8.29549329	      9.82412859	      0.17146339	     11.63990146	    -14.03727553	     -7.43127131	      8.89836054	      0.15457969	     -7.76007987	     10.32798352	      0.18025732	     15.42783880	     -9.44261291	     -7.43127131	      3.95184108	     -0.60653938	     -1.63070482	      2.96501611	     -9.72911368	     13.42416064	     16.62803801	    106.74668699	     -6.20811613	     -9.43759713	    -11.84069038	     20.41447637	    104.48678951
      0.26666670	     -5.09249834	      1.73253881	     -2.56001337	     -0.05441904	      1.25629329	     -0.04749773	      4.77053784	     -1.20803071	     -8.29645958	      9.44580017	      0.16486031	     11.68438663	    -13.87537672	     -7.43408502	      8.04308215	      0.21341962	     -8.03432164	      9.67488008	      0.16885851	     15.13132817	     -9.15362015	     -7.43408502	      3.50584808	     -0.64573003	     -1.37568229	      2.89052000	     -9.64403286	     13.22481522	     16.51379313	    106.92493295	     -6.14973209	     -9.34875400	    -12.31246817	     20.31956200	    104.67534581
